<svg width="388.4800170898437px" height="137.20000610351562px" xmlns="http://www.w3.org/2000/svg" viewBox="55.759991455078136 6.39999694824219 388.4800170898437 137.20000610351562" style="background: none;" preserveAspectRatio="xMidYMid"><defs><filter id="editing-extrude-glow"><feFlood flood-color="#333333" result="flood-1"></feFlood><feMorphology operator="erode" radius="1" in="SourceAlpha" result="erode"></feMorphology><feComposite operator="in" in="flood-1" in2="erode" result="comp1"></feComposite><feConvolveMatrix order="2,2" divisor="1" in="comp1" result="convolve" kernelMatrix="0 0 1 1"></feConvolveMatrix><feOffset dx="-2" dy="0" in="convolve" result="extrude"></feOffset><feComposite operator="in" in="flood-1" in2="extrude" result="comp-extrude"></feComposite><feFlood flood-color="#ffffff" result="flood-2"></feFlood><feComposite operator="in" in="flood-2" in2="SourceAlpha" result="comp2"></feComposite><feMorphology operator="dilate" radius="1" in="comp2" result="dilate"></feMorphology><feOffset dx="-3" dy="0" in="dilate" result="offset"></feOffset><feGaussianBlur in="offset" stdDeviation="5.8" result="blur"></feGaussianBlur><feComponentTransfer in="blur" result="shadow"><feFuncA type="linear" slope="0.8" intercept="-0.2"></feFuncA></feComponentTransfer><feMerge><feMergeNode in="shadow"></feMergeNode><feMergeNode in="comp-extrude"></feMergeNode><feMergeNode in="SourceGraphic"></feMergeNode></feMerge></filter></defs><g filter="url(#editing-extrude-glow)"><g transform="translate(115.25000369548798, 103.54499626159668)"><path d="M31.19-5.19L31.19-5.19L31.19-5.19Q32.03-5.19 32.72-5.42L32.72-5.42L32.72-5.42Q33.41-5.66 33.95-5.94L33.95-5.94L33.95-5.94Q34.50-6.22 34.86-6.45L34.86-6.45L34.86-6.45Q35.22-6.69 35.41-6.69L35.41-6.69L35.41-6.69Q35.69-6.69 35.80-6.59L35.80-6.59L35.80-6.59Q35.91-6.50 36.06-6.25L36.06-6.25L37.16-4.56L37.16-4.56Q37.31-4.31 37.31-4.13L37.31-4.13L37.31-4.13Q37.31-3.91 37.19-3.78L37.19-3.78L37.19-3.78Q37.06-3.66 36.94-3.56L36.94-3.56L36.94-3.56Q35.91-2.84 34.41-2.02L34.41-2.02L34.41-2.02Q32.91-1.19 30.92-0.50L30.92-0.50L30.92-0.50Q28.94 0.19 26.44 0.64L26.44 0.64L26.44 0.64Q23.94 1.09 20.94 1.09L20.94 1.09L20.94 1.09Q18.59 1.09 16.25 0.72L16.25 0.72L16.25 0.72Q13.91 0.34 11.77-0.47L11.77-0.47L11.77-0.47Q9.63-1.28 7.78-2.59L7.78-2.59L7.78-2.59Q5.94-3.91 4.58-5.81L4.58-5.81L4.58-5.81Q3.22-7.72 2.44-10.23L2.44-10.23L2.44-10.23Q1.66-12.75 1.66-16L1.66-16L1.66-16Q1.66-19.19 2.44-21.70L2.44-21.70L2.44-21.70Q3.22-24.22 4.58-26.13L4.58-26.13L4.58-26.13Q5.94-28.03 7.78-29.36L7.78-29.36L7.78-29.36Q9.63-30.69 11.77-31.52L11.77-31.52L11.77-31.52Q13.91-32.34 16.25-32.72L16.25-32.72L16.25-32.72Q18.59-33.09 20.94-33.09L20.94-33.09L20.94-33.09Q24.84-33.09 28.20-32.22L28.20-32.22L28.20-32.22Q31.56-31.34 34.03-29.34L34.03-29.34L34.03-29.34Q36.50-27.34 37.91-24.09L37.91-24.09L37.91-24.09Q39.31-20.84 39.31-16.13L39.31-16.13L39.31-14.38L39.31-14.38Q39.31-13.81 39.03-13.50L39.03-13.50L39.03-13.50Q38.75-13.19 38.09-13.19L38.09-13.19L25.16-13.19L25.16-13.19Q25.41-10.88 26.05-9.33L26.05-9.33L26.05-9.33Q26.69-7.78 27.52-6.86L27.52-6.86L27.52-6.86Q28.34-5.94 29.31-5.56L29.31-5.56L29.31-5.56Q30.28-5.19 31.19-5.19ZM25.03-17.03L34.88-17.03L34.88-17.03Q34.88-19.53 34.48-21.17L34.48-21.17L34.48-21.17Q34.09-22.81 33.44-23.80L33.44-23.80L33.44-23.80Q32.78-24.78 31.89-25.19L31.89-25.19L31.89-25.19Q31-25.59 30.03-25.59L30.03-25.59L30.03-25.59Q29.31-25.59 28.47-25.31L28.47-25.31L28.47-25.31Q27.63-25.03 26.89-24.13L26.89-24.13L26.89-24.13Q26.16-23.22 25.64-21.53L25.64-21.53L25.64-21.53Q25.13-19.84 25.03-17.03L25.03-17.03ZM65.34-15.81L65.34-15.81L65.34-15.81Q65.34-12.66 66.02-10.56L66.02-10.56L66.02-10.56Q66.69-8.47 67.72-7.23L67.72-7.23L67.72-7.23Q68.75-6 69.94-5.50L69.94-5.50L69.94-5.50Q71.13-5 72.16-5L72.16-5L72.16-5Q72.94-5 73.59-5.20L73.59-5.20L73.59-5.20Q74.25-5.41 74.75-5.67L74.75-5.67L74.75-5.67Q75.25-5.94 75.59-6.14L75.59-6.14L75.59-6.14Q75.94-6.34 76.13-6.34L76.13-6.34L76.13-6.34Q76.41-6.34 76.52-6.25L76.52-6.25L76.52-6.25Q76.63-6.16 76.78-5.91L76.78-5.91L77.88-4.22L77.88-4.22Q78.03-3.97 78.03-3.78L78.03-3.78L78.03-3.78Q78.03-3.56 77.91-3.44L77.91-3.44L77.91-3.44Q77.78-3.31 77.66-3.22L77.66-3.22L77.66-3.22Q76.63-2.50 75.13-1.70L75.13-1.70L75.13-1.70Q73.63-0.91 71.64-0.25L71.64-0.25L71.64-0.25Q69.66 0.41 67.22 0.84L67.22 0.84L67.22 0.84Q64.78 1.28 61.91 1.28L61.91 1.28L61.91 1.28Q59.56 1.28 57.22 0.91L57.22 0.91L57.22 0.91Q54.88 0.53 52.73-0.31L52.73-0.31L52.73-0.31Q50.59-1.16 48.75-2.48L48.75-2.48L48.75-2.48Q46.91-3.81 45.55-5.70L45.55-5.70L45.55-5.70Q44.19-7.59 43.41-10.11L43.41-10.11L43.41-10.11Q42.63-12.63 42.63-15.81L42.63-15.81L42.63-15.81Q42.63-19 43.41-21.52L43.41-21.52L43.41-21.52Q44.19-24.03 45.55-25.92L45.55-25.92L45.55-25.92Q46.91-27.81 48.75-29.14L48.75-29.14L48.75-29.14Q50.59-30.47 52.73-31.31L52.73-31.31L52.73-31.31Q54.88-32.16 57.22-32.53L57.22-32.53L57.22-32.53Q59.56-32.91 61.91-32.91L61.91-32.91L61.91-32.91Q64.47-32.91 66.84-32.52L66.84-32.52L66.84-32.52Q69.22-32.13 71.23-31.48L71.23-31.48L71.23-31.48Q73.25-30.84 74.86-30.08L74.86-30.08L74.86-30.08Q76.47-29.31 77.47-28.56L77.47-28.56L77.47-28.56Q77.59-28.47 77.72-28.34L77.72-28.34L77.72-28.34Q77.84-28.22 77.84-28L77.84-28L77.84-28Q77.84-27.78 77.69-27.56L77.69-27.56L76.59-25.88L76.59-25.88Q76.44-25.63 76.33-25.53L76.33-25.53L76.33-25.53Q76.22-25.44 75.94-25.44L75.94-25.44L75.94-25.44Q75.75-25.44 75.44-25.63L75.44-25.63L75.44-25.63Q75.13-25.81 74.66-26.05L74.66-26.05L74.66-26.05Q74.19-26.28 73.56-26.48L73.56-26.48L73.56-26.48Q72.94-26.69 72.16-26.69L72.16-26.69L72.16-26.69Q71.13-26.69 69.94-26.17L69.94-26.17L69.94-26.17Q68.75-25.66 67.72-24.41L67.72-24.41L67.72-24.41Q66.69-23.16 66.02-21.06L66.02-21.06L66.02-21.06Q65.34-18.97 65.34-15.81ZM99.59 1.09L99.59 1.09L99.59 1.09Q97.25 1.09 94.91 0.72L94.91 0.72L94.91 0.72Q92.56 0.34 90.42-0.47L90.42-0.47L90.42-0.47Q88.28-1.28 86.44-2.59L86.44-2.59L86.44-2.59Q84.59-3.91 83.23-5.81L83.23-5.81L83.23-5.81Q81.88-7.72 81.09-10.23L81.09-10.23L81.09-10.23Q80.31-12.75 80.31-16L80.31-16L80.31-16Q80.31-19.19 81.09-21.70L81.09-21.70L81.09-21.70Q81.88-24.22 83.23-26.13L83.23-26.13L83.23-26.13Q84.59-28.03 86.44-29.36L86.44-29.36L86.44-29.36Q88.28-30.69 90.42-31.52L90.42-31.52L90.42-31.52Q92.56-32.34 94.91-32.72L94.91-32.72L94.91-32.72Q97.25-33.09 99.59-33.09L99.59-33.09L99.59-33.09Q101.75-33.09 104.02-32.83L104.02-32.83L104.02-32.83Q106.28-32.56 108.42-31.86L108.42-31.86L108.42-31.86Q110.56-31.16 112.45-29.95L112.45-29.95L112.45-29.95Q114.34-28.75 115.77-26.88L115.77-26.88L115.77-26.88Q117.19-25 118.02-22.39L118.02-22.39L118.02-22.39Q118.84-19.78 118.84-16.25L118.84-16.25L118.84-16.25Q118.84-12.63 118.03-9.92L118.03-9.92L118.03-9.92Q117.22-7.22 115.80-5.30L115.80-5.30L115.80-5.30Q114.38-3.38 112.50-2.13L112.50-2.13L112.50-2.13Q110.63-0.88 108.48-0.17L108.48-0.17L108.48-0.17Q106.34 0.53 104.06 0.81L104.06 0.81L104.06 0.81Q101.78 1.09 99.59 1.09ZM109.19-6.41L109.19-6.41L109.19-6.41Q110.16-6.41 111.11-6.83L111.11-6.83L111.11-6.83Q112.06-7.25 112.80-8.34L112.80-8.34L112.80-8.34Q113.53-9.44 113.98-11.36L113.98-11.36L113.98-11.36Q114.44-13.28 114.44-16.25L114.44-16.25L114.44-16.25Q114.44-19.06 113.98-20.88L113.98-20.88L113.98-20.88Q113.53-22.69 112.78-23.73L112.78-23.73L112.78-23.73Q112.03-24.78 111.09-25.19L111.09-25.19L111.09-25.19Q110.16-25.59 109.19-25.59L109.19-25.59L109.19-25.59Q108.44-25.59 107.52-25.28L107.52-25.28L107.52-25.28Q106.59-24.97 105.80-23.95L105.80-23.95L105.80-23.95Q105-22.94 104.47-21.05L104.47-21.05L104.47-21.05Q103.94-19.16 103.94-16L103.94-16L103.94-16Q103.94-12.84 104.38-10.94L104.38-10.94L104.38-10.94Q104.81-9.03 105.53-8.03L105.53-8.03L105.53-8.03Q106.25-7.03 107.20-6.72L107.20-6.72L107.20-6.72Q108.16-6.41 109.19-6.41ZM140.84 0.63L140.84 0.63L140.84 0.63Q136.75 0.63 133.50-0.47L133.50-0.47L133.50-0.47Q130.25-1.56 128-3.64L128-3.64L128-3.64Q125.75-5.72 124.56-8.78L124.56-8.78L124.56-8.78Q123.38-11.84 123.38-15.78L123.38-15.78L123.38-46.91L123.38-46.91Q123.38-47.97 123.56-48.80L123.56-48.80L123.56-48.80Q123.75-49.63 124.28-50.16L124.28-50.16L124.28-50.16Q124.81-50.69 125.75-50.97L125.75-50.97L125.75-50.97Q126.69-51.25 128.19-51.25L128.19-51.25L141.88-51.25L141.88-51.25Q143.22-51.25 144.09-50.97L144.09-50.97L144.09-50.97Q144.97-50.69 145.48-50.14L145.48-50.14L145.48-50.14Q146-49.59 146.20-48.77L146.20-48.77L146.20-48.77Q146.41-47.94 146.41-46.81L146.41-46.81L146.41-32L146.41-32Q149.16-31.50 151.64-30.39L151.64-30.39L151.64-30.39Q154.13-29.28 156-27.36L156-27.36L156-27.36Q157.88-25.44 158.97-22.63L158.97-22.63L158.97-22.63Q160.06-19.81 160.06-15.88L160.06-15.88L160.06-15.88Q160.06-12.59 159.30-10.11L159.30-10.11L159.30-10.11Q158.53-7.63 157.17-5.78L157.17-5.78L157.17-5.78Q155.81-3.94 153.98-2.72L153.98-2.72L153.98-2.72Q152.16-1.50 150.02-0.75L150.02-0.75L150.02-0.75Q147.88 0 145.53 0.31L145.53 0.31L145.53 0.31Q143.19 0.63 140.84 0.63ZM146.41-28L146.41-3.81L146.41-3.81Q148.84-4.13 150.59-5.14L150.59-5.14L150.59-5.14Q152.34-6.16 153.45-7.75L153.45-7.75L153.45-7.75Q154.56-9.34 155.09-11.41L155.09-11.41L155.09-11.41Q155.63-13.47 155.63-15.88L155.63-15.88L155.63-15.88Q155.63-18.25 155.09-20.34L155.09-20.34L155.09-20.34Q154.56-22.44 153.44-24.03L153.44-24.03L153.44-24.03Q152.31-25.63 150.58-26.66L150.58-26.66L150.58-26.66Q148.84-27.69 146.41-28L146.41-28ZM164.59-4.34L164.59-27.66L164.59-27.66Q164.59-28.72 164.78-29.55L164.78-29.55L164.78-29.55Q164.97-30.38 165.50-30.91L165.50-30.91L165.50-30.91Q166.03-31.44 166.97-31.72L166.97-31.72L166.97-31.72Q167.91-32 169.41-32L169.41-32L183.09-32L183.09-32Q184.53-32 185.42-31.73L185.42-31.73L185.42-31.73Q186.31-31.47 186.81-30.94L186.81-30.94L186.81-30.94Q187.31-30.41 187.47-29.59L187.47-29.59L187.47-29.59Q187.63-28.78 187.63-27.66L187.63-27.66L187.63-4.28L187.63-4.28Q187.63-3.22 187.47-2.42L187.47-2.42L187.47-2.42Q187.31-1.63 186.81-1.08L186.81-1.08L186.81-1.08Q186.31-0.53 185.42-0.27L185.42-0.27L185.42-0.27Q184.53 0 183.09 0L183.09 0L169.41 0L169.41 0Q167.91 0 166.97-0.28L166.97-0.28L166.97-0.28Q166.03-0.56 165.50-1.09L165.50-1.09L165.50-1.09Q164.97-1.63 164.78-2.44L164.78-2.44L164.78-2.44Q164.59-3.25 164.59-4.34L164.59-4.34ZM165.75-45.38L165.75-45.38L165.75-45.38Q165.75-47.53 166.58-49.44L166.58-49.44L166.58-49.44Q167.41-51.34 168.81-52.75L168.81-52.75L168.81-52.75Q170.22-54.16 172.13-54.98L172.13-54.98L172.13-54.98Q174.03-55.81 176.19-55.81L176.19-55.81L176.19-55.81Q178.31-55.81 180.20-54.98L180.20-54.98L180.20-54.98Q182.09-54.16 183.50-52.75L183.50-52.75L183.50-52.75Q184.91-51.34 185.73-49.44L185.73-49.44L185.73-49.44Q186.56-47.53 186.56-45.38L186.56-45.38L186.56-45.38Q186.56-43.25 185.73-41.36L185.73-41.36L185.73-41.36Q184.91-39.47 183.50-38.06L183.50-38.06L183.50-38.06Q182.09-36.66 180.20-35.83L180.20-35.83L180.20-35.83Q178.31-35 176.19-35L176.19-35L176.19-35Q174.03-35 172.13-35.83L172.13-35.83L172.13-35.83Q170.22-36.66 168.81-38.06L168.81-38.06L168.81-38.06Q167.41-39.47 166.58-41.36L166.58-41.36L166.58-41.36Q165.75-43.25 165.75-45.38ZM193.38-4.34L193.38-46.84L193.38-46.84Q193.38-47.91 193.56-48.73L193.56-48.73L193.56-48.73Q193.75-49.56 194.28-50.09L194.28-50.09L194.28-50.09Q194.81-50.63 195.75-50.91L195.75-50.91L195.75-50.91Q196.69-51.19 198.19-51.19L198.19-51.19L211.88-51.19L211.88-51.19Q213.31-51.19 214.19-50.91L214.19-50.91L214.19-50.91Q215.06-50.63 215.56-50.09L215.56-50.09L215.56-50.09Q216.06-49.56 216.23-48.73L216.23-48.73L216.23-48.73Q216.41-47.91 216.41-46.84L216.41-46.84L216.41-24.28L223.91-31.72L223.91-31.72Q224.25-32.06 224.56-32.20L224.56-32.20L224.56-32.20Q224.88-32.34 225.13-32.34L225.13-32.34L225.13-32.34Q225.69-32.34 226.09-31.88L226.09-31.88L227.66-30.25L227.66-30.25Q228-29.84 228-29.47L228-29.47L228-29.47Q228-29.13 227.77-28.78L227.77-28.78L227.77-28.78Q227.53-28.44 227-28.03L227-28.03L217.22-20.81L217.22-20.81Q219.81-20.72 221.59-20.14L221.59-20.14L221.59-20.14Q223.38-19.56 224.47-18.47L224.47-18.47L224.47-18.47Q225.56-17.38 226.05-15.75L226.05-15.75L226.05-15.75Q226.53-14.13 226.53-11.97L226.53-11.97L226.53-1.47L226.53-1.47Q226.53-0.94 226.39-0.64L226.39-0.64L226.39-0.64Q226.25-0.34 226.05-0.20L226.05-0.20L226.05-0.20Q225.84-0.06 225.56-0.03L225.56-0.03L225.56-0.03Q225.28 0 225 0L225 0L223 0L223 0Q222.19 0 221.95-0.47L221.95-0.47L221.95-0.47Q221.72-0.94 221.72-1.47L221.72-1.47L221.72-12.28L221.72-12.28Q221.72-13.72 221.45-14.67L221.45-14.67L221.45-14.67Q221.19-15.63 220.56-16.20L220.56-16.20L220.56-16.20Q219.94-16.78 218.92-17.05L218.92-17.05L218.92-17.05Q217.91-17.31 216.41-17.38L216.41-17.38L216.41-4.28L216.41-4.28Q216.41-3.22 216.20-2.42L216.20-2.42L216.20-2.42Q216-1.63 215.44-1.08L215.44-1.08L215.44-1.08Q214.88-0.53 213.88-0.27L213.88-0.27L213.88-0.27Q212.88 0 211.31 0L211.31 0L198.19 0L198.19 0Q196.69 0 195.75-0.28L195.75-0.28L195.75-0.28Q194.81-0.56 194.28-1.09L194.28-1.09L194.28-1.09Q193.75-1.63 193.56-2.44L193.56-2.44L193.56-2.44Q193.38-3.25 193.38-4.34L193.38-4.34ZM259.72-5.19L259.72-5.19L259.72-5.19Q260.56-5.19 261.25-5.42L261.25-5.42L261.25-5.42Q261.94-5.66 262.48-5.94L262.48-5.94L262.48-5.94Q263.03-6.22 263.39-6.45L263.39-6.45L263.39-6.45Q263.75-6.69 263.94-6.69L263.94-6.69L263.94-6.69Q264.22-6.69 264.33-6.59L264.33-6.59L264.33-6.59Q264.44-6.50 264.59-6.25L264.59-6.25L265.69-4.56L265.69-4.56Q265.84-4.31 265.84-4.13L265.84-4.13L265.84-4.13Q265.84-3.91 265.72-3.78L265.72-3.78L265.72-3.78Q265.59-3.66 265.47-3.56L265.47-3.56L265.47-3.56Q264.44-2.84 262.94-2.02L262.94-2.02L262.94-2.02Q261.44-1.19 259.45-0.50L259.45-0.50L259.45-0.50Q257.47 0.19 254.97 0.64L254.97 0.64L254.97 0.64Q252.47 1.09 249.47 1.09L249.47 1.09L249.47 1.09Q247.13 1.09 244.78 0.72L244.78 0.72L244.78 0.72Q242.44 0.34 240.30-0.47L240.30-0.47L240.30-0.47Q238.16-1.28 236.31-2.59L236.31-2.59L236.31-2.59Q234.47-3.91 233.11-5.81L233.11-5.81L233.11-5.81Q231.75-7.72 230.97-10.23L230.97-10.23L230.97-10.23Q230.19-12.75 230.19-16L230.19-16L230.19-16Q230.19-19.19 230.97-21.70L230.97-21.70L230.97-21.70Q231.75-24.22 233.11-26.13L233.11-26.13L233.11-26.13Q234.47-28.03 236.31-29.36L236.31-29.36L236.31-29.36Q238.16-30.69 240.30-31.52L240.30-31.52L240.30-31.52Q242.44-32.34 244.78-32.72L244.78-32.72L244.78-32.72Q247.13-33.09 249.47-33.09L249.47-33.09L249.47-33.09Q253.38-33.09 256.73-32.22L256.73-32.22L256.73-32.22Q260.09-31.34 262.56-29.34L262.56-29.34L262.56-29.34Q265.03-27.34 266.44-24.09L266.44-24.09L266.44-24.09Q267.84-20.84 267.84-16.13L267.84-16.13L267.84-14.38L267.84-14.38Q267.84-13.81 267.56-13.50L267.56-13.50L267.56-13.50Q267.28-13.19 266.63-13.19L266.63-13.19L253.69-13.19L253.69-13.19Q253.94-10.88 254.58-9.33L254.58-9.33L254.58-9.33Q255.22-7.78 256.05-6.86L256.05-6.86L256.05-6.86Q256.88-5.94 257.84-5.56L257.84-5.56L257.84-5.56Q258.81-5.19 259.72-5.19ZM253.56-17.03L263.41-17.03L263.41-17.03Q263.41-19.53 263.02-21.17L263.02-21.17L263.02-21.17Q262.63-22.81 261.97-23.80L261.97-23.80L261.97-23.80Q261.31-24.78 260.42-25.19L260.42-25.19L260.42-25.19Q259.53-25.59 258.56-25.59L258.56-25.59L258.56-25.59Q257.84-25.59 257-25.31L257-25.31L257-25.31Q256.16-25.03 255.42-24.13L255.42-24.13L255.42-24.13Q254.69-23.22 254.17-21.53L254.17-21.53L254.17-21.53Q253.66-19.84 253.56-17.03L253.56-17.03Z" fill="#eb6c6c"></path></g></g><style>text {
  font-size: 64px;
  font-family: Arial Black;
  dominant-baseline: central;
  text-anchor: middle;
}</style></svg>